<?xml version="1.0" encoding="UTF-8"?>
<svg xmlns="http://www.w3.org/2000/svg" xmlns:xlink="http://www.w3.org/1999/xlink" width="50px" height="50px" viewBox="0 0 50 50" version="1.1">
<g id="surface1">
<path style=" stroke:none;fill-rule:nonzero;fill:rgb(81.568627%,80.784314%,80.784314%);fill-opacity:1;" d="M 1.09375 0.167969 C 0.96875 0.195312 0.695312 0.382812 0.496094 0.578125 C -0.117188 1.191406 -0.125 1.921875 0.488281 2.539062 C 0.683594 2.734375 0.996094 2.929688 1.171875 2.960938 C 1.347656 3 7.335938 3.027344 14.472656 3.027344 C 25.378906 3.027344 27.5 3.046875 27.773438 3.164062 C 28.253906 3.359375 28.867188 3.953125 29.09375 4.433594 C 29.296875 4.84375 29.296875 4.851562 29.296875 24.980469 C 29.296875 41.855469 29.277344 45.175781 29.160156 45.449219 C 28.984375 45.867188 28.496094 46.425781 28.046875 46.699219 L 27.6875 46.925781 L 1.023438 47.019531 L 0.722656 47.238281 C 0.265625 47.558594 0.0585938 47.941406 0.0585938 48.4375 C 0.0585938 48.933594 0.265625 49.316406 0.722656 49.640625 L 1.023438 49.855469 L 14.355469 49.855469 C 26.992188 49.855469 27.714844 49.84375 28.269531 49.675781 C 30.070312 49.132812 31.453125 47.742188 32.003906 45.949219 C 32.167969 45.390625 32.175781 44.453125 32.175781 25 C 32.175781 5.507812 32.167969 4.609375 32.003906 4.054688 C 31.445312 2.246094 30.15625 0.9375 28.320312 0.332031 C 27.8125 0.15625 27.097656 0.148438 14.550781 0.136719 C 7.277344 0.128906 1.21875 0.136719 1.09375 0.167969 Z M 1.09375 0.167969 "/>
<path style=" stroke:none;fill-rule:nonzero;fill:rgb(81.568627%,80.784314%,80.784314%);fill-opacity:1;" d="M 1.09375 7.980469 C 0.96875 8.007812 0.695312 8.195312 0.496094 8.390625 C -0.125 9.015625 -0.125 9.738281 0.496094 10.363281 C 0.769531 10.636719 0.976562 10.742188 1.289062 10.789062 C 1.523438 10.820312 6.582031 10.839844 12.546875 10.820312 L 23.386719 10.789062 L 23.691406 10.578125 C 24.152344 10.253906 24.355469 9.871094 24.355469 9.375 C 24.355469 8.878906 24.152344 8.496094 23.691406 8.171875 L 23.386719 7.960938 L 12.351562 7.949219 C 6.289062 7.941406 1.21875 7.960938 1.09375 7.980469 Z M 1.09375 7.980469 "/>
<path style=" stroke:none;fill-rule:nonzero;fill:rgb(81.568627%,80.784314%,80.784314%);fill-opacity:1;" d="M 1.09375 15.789062 C 0.96875 15.820312 0.695312 16.003906 0.496094 16.203125 C -0.125 16.828125 -0.125 17.546875 0.496094 18.171875 C 0.769531 18.449219 0.976562 18.554688 1.289062 18.605469 C 1.523438 18.632812 6.582031 18.652344 12.546875 18.632812 L 23.386719 18.605469 L 23.691406 18.390625 C 24.152344 18.066406 24.355469 17.6875 24.355469 17.1875 C 24.355469 16.6875 24.152344 16.308594 23.691406 15.988281 L 23.386719 15.773438 L 12.351562 15.761719 C 6.289062 15.753906 1.21875 15.773438 1.09375 15.789062 Z M 1.09375 15.789062 "/>
<path style=" stroke:none;fill-rule:nonzero;fill:rgb(81.568627%,80.784314%,80.784314%);fill-opacity:1;" d="M 40.402344 15.800781 C 40.027344 15.847656 39.394531 16.496094 39.335938 16.886719 C 39.21875 17.675781 39.160156 17.597656 42.949219 21.40625 L 46.523438 25 L 42.949219 28.585938 C 39.160156 32.402344 39.21875 32.324219 39.335938 33.113281 C 39.394531 33.527344 40.011719 34.140625 40.417969 34.199219 C 41.21875 34.316406 41.085938 34.433594 45.613281 29.894531 C 49.199219 26.320312 49.894531 25.585938 49.921875 25.3125 C 50.027344 24.492188 50.136719 24.628906 45.8125 20.28125 C 43.574219 18.039062 41.640625 16.121094 41.503906 16.027344 C 41.230469 15.832031 40.8125 15.742188 40.402344 15.800781 Z M 40.402344 15.800781 "/>
<path style=" stroke:none;fill-rule:nonzero;fill:rgb(81.568627%,80.784314%,80.784314%);fill-opacity:1;" d="M 1.09375 23.605469 C 0.96875 23.632812 0.695312 23.820312 0.496094 24.015625 C -0.125 24.640625 -0.125 25.363281 0.496094 25.988281 C 0.769531 26.261719 0.976562 26.367188 1.289062 26.414062 C 1.523438 26.445312 6.582031 26.464844 12.546875 26.445312 L 23.386719 26.414062 L 23.691406 26.203125 C 24.152344 25.878906 24.355469 25.496094 24.355469 25 C 24.355469 24.503906 24.152344 24.121094 23.691406 23.796875 L 23.386719 23.585938 L 12.351562 23.574219 C 6.289062 23.5625 1.21875 23.585938 1.09375 23.605469 Z M 1.09375 23.605469 "/>
<path style=" stroke:none;fill-rule:nonzero;fill:rgb(81.568627%,80.784314%,80.784314%);fill-opacity:1;" d="M 1.09375 31.414062 C 0.96875 31.445312 0.695312 31.628906 0.496094 31.828125 C -0.125 32.453125 -0.125 33.171875 0.496094 33.796875 C 0.769531 34.070312 0.976562 34.179688 1.289062 34.230469 C 1.523438 34.257812 6.582031 34.277344 12.546875 34.257812 L 23.386719 34.230469 L 23.691406 34.011719 C 24.152344 33.691406 24.355469 33.3125 24.355469 32.8125 C 24.355469 32.3125 24.152344 31.933594 23.691406 31.613281 L 23.386719 31.398438 L 12.351562 31.386719 C 6.289062 31.378906 1.21875 31.398438 1.09375 31.414062 Z M 1.09375 31.414062 "/>
<path style=" stroke:none;fill-rule:nonzero;fill:rgb(81.568627%,80.784314%,80.784314%);fill-opacity:1;" d="M 1.09375 39.230469 C 0.96875 39.257812 0.695312 39.445312 0.496094 39.636719 C -0.125 40.261719 -0.125 40.988281 0.496094 41.613281 C 0.769531 41.886719 0.976562 41.992188 1.289062 42.039062 C 1.523438 42.070312 6.582031 42.089844 12.546875 42.070312 L 23.386719 42.039062 L 23.691406 41.828125 C 24.152344 41.503906 24.355469 41.121094 24.355469 40.625 C 24.355469 40.128906 24.152344 39.746094 23.691406 39.421875 L 23.386719 39.210938 L 12.351562 39.199219 C 6.289062 39.1875 1.21875 39.210938 1.09375 39.230469 Z M 1.09375 39.230469 "/>
<path style=" stroke:none;fill-rule:nonzero;fill:rgb(81.568627%,80.784314%,80.784314%);fill-opacity:1;" d="M 1.09375 0.167969 C 0.96875 0.195312 0.695312 0.382812 0.496094 0.578125 C -0.117188 1.191406 -0.125 1.921875 0.488281 2.539062 C 0.683594 2.734375 0.996094 2.929688 1.171875 2.960938 C 1.347656 3 7.335938 3.027344 14.472656 3.027344 C 25.378906 3.027344 27.5 3.046875 27.773438 3.164062 C 28.253906 3.359375 28.867188 3.953125 29.09375 4.433594 C 29.296875 4.84375 29.296875 4.851562 29.296875 24.980469 C 29.296875 41.855469 29.277344 45.175781 29.160156 45.449219 C 28.984375 45.867188 28.496094 46.425781 28.046875 46.699219 L 27.6875 46.925781 L 1.023438 47.019531 L 0.722656 47.238281 C 0.265625 47.558594 0.0585938 47.941406 0.0585938 48.4375 C 0.0585938 48.933594 0.265625 49.316406 0.722656 49.640625 L 1.023438 49.855469 L 14.355469 49.855469 C 26.992188 49.855469 27.714844 49.84375 28.269531 49.675781 C 30.070312 49.132812 31.453125 47.742188 32.003906 45.949219 C 32.167969 45.390625 32.175781 44.453125 32.175781 25 C 32.175781 5.507812 32.167969 4.609375 32.003906 4.054688 C 31.445312 2.246094 30.15625 0.9375 28.320312 0.332031 C 27.8125 0.15625 27.097656 0.148438 14.550781 0.136719 C 7.277344 0.128906 1.21875 0.136719 1.09375 0.167969 Z M 1.09375 0.167969 "/>
<path style=" stroke:none;fill-rule:nonzero;fill:rgb(81.568627%,80.784314%,80.784314%);fill-opacity:1;" d="M 1.09375 7.980469 C 0.96875 8.007812 0.695312 8.195312 0.496094 8.390625 C -0.125 9.015625 -0.125 9.738281 0.496094 10.363281 C 0.769531 10.636719 0.976562 10.742188 1.289062 10.789062 C 1.523438 10.820312 6.582031 10.839844 12.546875 10.820312 L 23.386719 10.789062 L 23.691406 10.578125 C 24.152344 10.253906 24.355469 9.871094 24.355469 9.375 C 24.355469 8.878906 24.152344 8.496094 23.691406 8.171875 L 23.386719 7.960938 L 12.351562 7.949219 C 6.289062 7.941406 1.21875 7.960938 1.09375 7.980469 Z M 1.09375 7.980469 "/>
<path style=" stroke:none;fill-rule:nonzero;fill:rgb(81.568627%,80.784314%,80.784314%);fill-opacity:1;" d="M 1.09375 15.789062 C 0.96875 15.820312 0.695312 16.003906 0.496094 16.203125 C -0.125 16.828125 -0.125 17.546875 0.496094 18.171875 C 0.769531 18.449219 0.976562 18.554688 1.289062 18.605469 C 1.523438 18.632812 6.582031 18.652344 12.546875 18.632812 L 23.386719 18.605469 L 23.691406 18.390625 C 24.152344 18.066406 24.355469 17.6875 24.355469 17.1875 C 24.355469 16.6875 24.152344 16.308594 23.691406 15.988281 L 23.386719 15.773438 L 12.351562 15.761719 C 6.289062 15.753906 1.21875 15.773438 1.09375 15.789062 Z M 1.09375 15.789062 "/>
<path style=" stroke:none;fill-rule:nonzero;fill:rgb(81.568627%,80.784314%,80.784314%);fill-opacity:1;" d="M 40.402344 15.800781 C 40.027344 15.847656 39.394531 16.496094 39.335938 16.886719 C 39.21875 17.675781 39.160156 17.597656 42.949219 21.40625 L 46.523438 25 L 42.949219 28.585938 C 39.160156 32.402344 39.21875 32.324219 39.335938 33.113281 C 39.394531 33.527344 40.011719 34.140625 40.417969 34.199219 C 41.21875 34.316406 41.085938 34.433594 45.613281 29.894531 C 49.199219 26.320312 49.894531 25.585938 49.921875 25.3125 C 50.027344 24.492188 50.136719 24.628906 45.8125 20.28125 C 43.574219 18.039062 41.640625 16.121094 41.503906 16.027344 C 41.230469 15.832031 40.8125 15.742188 40.402344 15.800781 Z M 40.402344 15.800781 "/>
<path style=" stroke:none;fill-rule:nonzero;fill:rgb(81.568627%,80.784314%,80.784314%);fill-opacity:1;" d="M 1.09375 23.605469 C 0.96875 23.632812 0.695312 23.820312 0.496094 24.015625 C -0.125 24.640625 -0.125 25.363281 0.496094 25.988281 C 0.769531 26.261719 0.976562 26.367188 1.289062 26.414062 C 1.523438 26.445312 6.582031 26.464844 12.546875 26.445312 L 23.386719 26.414062 L 23.691406 26.203125 C 24.152344 25.878906 24.355469 25.496094 24.355469 25 C 24.355469 24.503906 24.152344 24.121094 23.691406 23.796875 L 23.386719 23.585938 L 12.351562 23.574219 C 6.289062 23.5625 1.21875 23.585938 1.09375 23.605469 Z M 1.09375 23.605469 "/>
<path style=" stroke:none;fill-rule:nonzero;fill:rgb(81.568627%,80.784314%,80.784314%);fill-opacity:1;" d="M 1.09375 31.414062 C 0.96875 31.445312 0.695312 31.628906 0.496094 31.828125 C -0.125 32.453125 -0.125 33.171875 0.496094 33.796875 C 0.769531 34.070312 0.976562 34.179688 1.289062 34.230469 C 1.523438 34.257812 6.582031 34.277344 12.546875 34.257812 L 23.386719 34.230469 L 23.691406 34.011719 C 24.152344 33.691406 24.355469 33.3125 24.355469 32.8125 C 24.355469 32.3125 24.152344 31.933594 23.691406 31.613281 L 23.386719 31.398438 L 12.351562 31.386719 C 6.289062 31.378906 1.21875 31.398438 1.09375 31.414062 Z M 1.09375 31.414062 "/>
<path style=" stroke:none;fill-rule:nonzero;fill:rgb(81.568627%,80.784314%,80.784314%);fill-opacity:1;" d="M 1.09375 39.230469 C 0.96875 39.257812 0.695312 39.445312 0.496094 39.636719 C -0.125 40.261719 -0.125 40.988281 0.496094 41.613281 C 0.769531 41.886719 0.976562 41.992188 1.289062 42.039062 C 1.523438 42.070312 6.582031 42.089844 12.546875 42.070312 L 23.386719 42.039062 L 23.691406 41.828125 C 24.152344 41.503906 24.355469 41.121094 24.355469 40.625 C 24.355469 40.128906 24.152344 39.746094 23.691406 39.421875 L 23.386719 39.210938 L 12.351562 39.199219 C 6.289062 39.1875 1.21875 39.210938 1.09375 39.230469 Z M 1.09375 39.230469 "/>
</g>
</svg>
