<?xml version="1.0" standalone="no"?>
<!DOCTYPE svg PUBLIC "-//W3C//DTD SVG 20010904//EN"
 "http://www.w3.org/TR/2001/REC-SVG-20010904/DTD/svg10.dtd">
<svg version="1.0" xmlns="http://www.w3.org/2000/svg"
 width="512.000000pt" height="512.000000pt" viewBox="0 0 512.000000 512.000000"
 preserveAspectRatio="xMidYMid meet">

<g transform="translate(0.000000,512.000000) scale(0.100000,-0.100000)"
fill="#000000" stroke="none">
<path d="M112 5103 c-13 -3 -41 -22 -61 -42 -63 -63 -64 -138 -1 -201 20 -20
52 -40 70 -43 18 -4 631 -7 1362 -7 1117 0 1334 -2 1362 -14 49 -20 112 -81
135 -130 21 -42 21 -43 21 -2104 0 -1728 -2 -2068 -14 -2096 -18 -43 -68 -100
-114 -128 l-37 -23 -1365 -5 -1365 -5 -31 -22 c-47 -33 -68 -72 -68 -123 0
-51 21 -90 68 -123 l31 -22 1365 0 c1294 0 1368 1 1425 18 184 56 326 198 382
382 17 57 18 153 18 2145 0 1996 -1 2088 -18 2145 -57 185 -189 319 -377 381
-52 18 -125 19 -1410 20 -745 1 -1365 0 -1378 -3z"/>
<path d="M112 4303 c-13 -3 -41 -22 -61 -42 -64 -64 -64 -138 0 -202 28 -28
49 -39 81 -44 24 -3 542 -5 1153 -3 l1110 3 31 22 c47 33 68 72 68 123 0 51
-21 90 -68 123 l-31 22 -1130 1 c-621 1 -1140 -1 -1153 -3z"/>
<path d="M112 3503 c-13 -3 -41 -22 -61 -42 -64 -64 -64 -138 0 -202 28 -28
49 -39 81 -44 24 -3 542 -5 1153 -3 l1110 3 31 22 c47 33 68 72 68 123 0 51
-21 90 -68 123 l-31 22 -1130 1 c-621 1 -1140 -1 -1153 -3z"/>
<path d="M4137 3502 c-38 -5 -103 -71 -109 -111 -12 -81 -18 -73 370 -463
l366 -368 -366 -367 c-388 -391 -382 -383 -370 -464 6 -42 69 -105 111 -111
82 -12 68 -24 532 441 367 366 438 441 441 469 11 84 22 70 -421 515 -229 230
-427 426 -441 436 -28 20 -71 29 -113 23z"/>
<path d="M112 2703 c-13 -3 -41 -22 -61 -42 -64 -64 -64 -138 0 -202 28 -28
49 -39 81 -44 24 -3 542 -5 1153 -3 l1110 3 31 22 c47 33 68 72 68 123 0 51
-21 90 -68 123 l-31 22 -1130 1 c-621 1 -1140 -1 -1153 -3z"/>
<path d="M112 1903 c-13 -3 -41 -22 -61 -42 -64 -64 -64 -138 0 -202 28 -28
49 -39 81 -44 24 -3 542 -5 1153 -3 l1110 3 31 22 c47 33 68 72 68 123 0 51
-21 90 -68 123 l-31 22 -1130 1 c-621 1 -1140 -1 -1153 -3z"/>
<path d="M112 1103 c-13 -3 -41 -22 -61 -42 -64 -64 -64 -138 0 -202 28 -28
49 -39 81 -44 24 -3 542 -5 1153 -3 l1110 3 31 22 c47 33 68 72 68 123 0 51
-21 90 -68 123 l-31 22 -1130 1 c-621 1 -1140 -1 -1153 -3z"/>
</g>
</svg>
