<svg width="683" height="683" xmlns="http://www.w3.org/2000/svg" xmlns:xlink="http://www.w3.org/1999/xlink" overflow="hidden"><defs><clipPath id="clip0"><rect x="298" y="18" width="683" height="683"/></clipPath></defs><g clip-path="url(#clip0)" transform="translate(-298 -18)"><path d="M14.9406 680.732C13.2064 680.332 9.47129 677.797 6.80332 675.13-1.60078 666.725-1.73418 656.721 6.66992 648.316 9.33789 645.648 13.6066 642.98 16.0078 642.58 18.409 642.047 100.182 641.646 197.696 641.646 346.703 641.646 375.65 641.38 379.385 639.779 385.922 637.111 394.326 628.974 397.394 622.437 400.195 616.834 400.195 616.701 400.195 341.767 400.195 111.254 399.929 65.8988 398.328 62.1637 395.927 56.4275 389.257 48.8238 383.12 45.0887L378.185 42.0205 196.096 41.3535 14.0068 40.6865 9.87148 37.7518C3.60176 33.3496 0.800391 28.1471 0.800391 21.3438 0.800391 14.5404 3.60176 9.33789 9.87148 4.93574L14.0068 2.00098 196.096 2.00098C368.713 2.00098 378.585 2.13438 386.189 4.40215 410.734 11.8725 429.676 30.815 437.147 55.3604 439.414 62.9641 439.548 75.7703 439.548 341.5 439.548 607.763 439.414 620.036 437.147 627.64 429.543 652.318 411.934 670.194 386.855 678.464 379.919 680.866 370.181 680.999 198.764 681.132 99.3818 681.266 16.6748 681.132 14.9406 680.732Z" fill="#7F7F7F" transform="matrix(1 0 0 -1 298 701)"/><path d="M14.9406 574.013C13.2064 573.613 9.47129 571.079 6.80332 568.411-1.73418 559.873-1.73418 550.002 6.80332 541.464 10.5385 537.729 13.3398 536.262 17.6086 535.595 20.8102 535.195 89.9106 534.928 171.417 535.195L319.489 535.595 323.625 538.53C329.894 542.932 332.696 548.134 332.696 554.938 332.696 561.741 329.894 566.943 323.625 571.346L319.489 574.28 168.749 574.414C85.9086 574.547 16.6748 574.28 14.9406 574.013Z" fill="#7F7F7F" transform="matrix(1 0 0 -1 298 701)"/><path d="M14.9406 467.295C13.2064 466.895 9.47129 464.36 6.80332 461.692-1.73418 453.155-1.73418 443.283 6.80332 434.746 10.5385 431.01 13.3398 429.543 17.6086 428.876 20.8102 428.476 89.9106 428.209 171.417 428.476L319.489 428.876 323.625 431.811C329.894 436.213 332.696 441.415 332.696 448.219 332.696 455.022 329.894 460.225 323.625 464.627L319.489 467.562 168.749 467.695C85.9086 467.828 16.6748 467.562 14.9406 467.295Z" fill="#7F7F7F" transform="matrix(1 0 0 -1 298 701)"/><path d="M551.869 467.161C546.8 466.494 538.129 457.69 537.329 452.354 535.728 441.549 534.928 442.616 586.686 390.591L635.51 341.5 586.686 292.543C534.928 240.384 535.728 241.451 537.329 230.646 538.129 225.043 546.533 216.639 552.136 215.839 563.075 214.238 561.207 212.637 623.104 274.667 672.061 323.491 681.533 333.496 681.933 337.231 683.4 348.437 684.868 346.569 625.772 405.931 595.224 436.613 568.811 462.759 566.943 464.093 563.208 466.761 557.472 467.962 551.869 467.161Z" fill="#7F7F7F" transform="matrix(1 0 0 -1 298 701)"/><path d="M14.9406 360.576C13.2064 360.176 9.47129 357.641 6.80332 354.973-1.73418 346.436-1.73418 336.564 6.80332 328.027 10.5385 324.292 13.3398 322.824 17.6086 322.157 20.8102 321.757 89.9106 321.49 171.417 321.757L319.489 322.157 323.625 325.092C329.894 329.494 332.696 334.697 332.696 341.5 332.696 348.303 329.894 353.506 323.625 357.908L319.489 360.843 168.749 360.976C85.9086 361.11 16.6748 360.843 14.9406 360.576Z" fill="#7F7F7F" transform="matrix(1 0 0 -1 298 701)"/><path d="M14.9406 253.857C13.2064 253.457 9.47129 250.922 6.80332 248.255-1.73418 239.717-1.73418 229.846 6.80332 221.308 10.5385 217.573 13.3398 216.105 17.6086 215.438 20.8102 215.038 89.9106 214.771 171.417 215.038L319.489 215.438 323.625 218.373C329.894 222.775 332.696 227.978 332.696 234.781 332.696 241.585 329.894 246.787 323.625 251.189L319.489 254.124 168.749 254.257C85.9086 254.391 16.6748 254.124 14.9406 253.857Z" fill="#7F7F7F" transform="matrix(1 0 0 -1 298 701)"/><path d="M14.9406 147.138C13.2064 146.738 9.47129 144.204 6.80332 141.536-1.73418 132.998-1.73418 123.127 6.80332 114.589 10.5385 110.854 13.3398 109.387 17.6086 108.72 20.8102 108.32 89.9106 108.053 171.417 108.32L319.489 108.72 323.625 111.654C329.894 116.057 332.696 121.259 332.696 128.062 332.696 134.866 329.894 140.068 323.625 144.471L319.489 147.405 168.749 147.539C85.9086 147.672 16.6748 147.405 14.9406 147.138Z" fill="#7F7F7F" transform="matrix(1 0 0 -1 298 701)"/></g></svg>